Coordinates
version=1
nRows=9
nColumns=63
inDegrees=yes

Units are S.I. units (second, meters, Newtons, ...)
If the header above contains a line with 'inDegrees', this indicates whether rotational values are in degrees (yes) or radians (no).

endheader
time	pelvis_tilt	pelvis_list	pelvis_rotation	pelvis_tx	pelvis_ty	pelvis_tz	hip_flexion_r	hip_adduction_r	hip_rotation_r	knee_angle_r	knee_angle_r_beta	ankle_angle_r	subtalar_angle_r	mtp_angle_r	hip_flexion_l	hip_adduction_l	hip_rotation_l	knee_angle_l	knee_angle_l_beta	ankle_angle_l	subtalar_angle_l	mtp_angle_l	L5_S1_Flex_Ext	L5_S1_Lat_Bending	L5_S1_axial_rotation	L4_L5_Flex_Ext	L4_L5_Lat_Bending	L4_L5_axial_rotation	L3_L4_Flex_Ext	L3_L4_Lat_Bending	L3_L4_axial_rotation	L2_L3_Flex_Ext	L2_L3_Lat_Bending	L2_L3_axial_rotation	L1_L2_Flex_Ext	L1_L2_Lat_Bending	L1_L2_axial_rotation	L1_T12_Flex_Ext	L1_T12_Lat_Bending	L1_T12_axial_rotation	Abs_r3	Abs_r2	Abs_r1	Abs_t1	Abs_t2	neck_flexion	neck_bending	neck_rotation	arm_flex_r	arm_add_r	arm_rot_r	elbow_flex_r	pro_sup_r	wrist_flex_r	wrist_dev_r	arm_flex_l	arm_add_l	arm_rot_l	elbow_flex_l	pro_sup_l	wrist_flex_l	wrist_dev_l
6.958333	-5.626917	-27.036406	93.542065	0.166545	0.935687	0.678965	26.386176	-5.644257	-13.025071	16.393154	0.286115	30.427484	7.370245	0.000000	26.938161	5.397455	0.216749	13.879198	0.242238	29.599989	2.084503	0.000000	-0.526379	0.505508	0.854982	-0.977539	0.672326	0.908419	-0.864788	1.229093	0.908419	-0.601599	1.229093	0.748110	-0.488796	1.030833	0.694673	-0.300773	0.783033	0.641237	-3.759874	5.718412	4.755156	0.000000	0.000000	-1.139513	2.319690	-1.139946	8.115713	-18.969273	12.126903	61.944101	87.550095	-13.579899	3.772994	-6.478904	-19.573664	-1.326091	131.166512	85.580515	-9.545342	20.351068
6.979167	-5.313224	-26.841787	93.070571	0.164715	0.934798	0.677548	27.053331	-5.463221	-12.583050	18.030804	0.314697	30.977244	7.061834	0.000000	26.980811	5.095746	0.413590	14.464765	0.252458	30.480548	1.253096	0.000000	-0.510280	0.598566	0.705841	-0.947641	0.796093	0.749957	-0.838339	1.455353	0.749957	-0.583199	1.455353	0.617611	-0.473846	1.220596	0.573496	-0.291574	0.927179	0.529381	-3.644880	6.771098	3.925679	0.000000	0.000000	-3.229412	1.900883	0.189189	7.155579	-19.706311	13.422640	62.987770	87.819766	-12.934035	4.964216	-4.006034	-17.967465	-2.137271	131.588351	84.598016	-10.283744	22.465079
7.000000	-5.116420	-26.604958	92.562948	0.163351	0.933996	0.676135	27.646219	-5.330791	-12.082476	19.641681	0.342812	31.480507	6.706732	0.000000	26.916578	4.867051	0.557002	14.924098	0.260475	31.253827	0.495443	0.000000	-0.493370	0.661782	0.582775	-0.916238	0.880170	0.619198	-0.810558	1.609057	0.619198	-0.563873	1.609057	0.509928	-0.458144	1.349506	0.473504	-0.281912	1.025101	0.437081	-3.524095	7.486213	3.241218	0.000000	0.000000	-5.355947	1.662534	1.089956	6.089176	-20.395180	14.402931	64.248116	88.025454	-12.339063	6.245212	-1.464178	-16.500161	-2.853371	131.532760	83.702929	-10.695973	24.002156
7.020833	-4.989544	-26.388053	92.094030	0.162377	0.933216	0.674828	28.197651	-5.229845	-11.620915	21.185803	0.369762	31.922044	6.336744	0.000000	26.849311	4.681089	0.666242	15.338039	0.267699	31.953889	-0.162817	0.000000	-0.469844	0.701658	0.476438	-0.872547	0.933206	0.506215	-0.771907	1.706012	0.506215	-0.536985	1.706012	0.416883	-0.436297	1.430822	0.387106	-0.268469	1.086869	0.357328	-3.356049	7.937300	2.649804	0.000000	0.000000	-7.443358	1.557653	1.577612	4.864345	-21.046625	15.098316	65.714279	88.200602	-11.843172	7.428410	1.099502	-15.174672	-3.454539	131.063727	82.916233	-10.833290	24.846047
7.041667	-4.996857	-26.124811	91.577866	0.162026	0.932573	0.673573	28.627145	-5.179044	-11.060561	22.602518	0.394488	32.287285	5.879125	0.000000	26.650467	4.580795	0.709968	15.577768	0.271883	32.492543	-0.753102	0.000000	-0.451254	0.709427	0.399055	-0.838023	0.943538	0.423996	-0.741365	1.724901	0.423996	-0.515738	1.724901	0.349173	-0.419034	1.446664	0.324232	-0.257846	1.098902	0.299291	-3.223261	8.025181	2.219422	0.000000	0.000000	-9.393095	1.582185	1.631046	3.515488	-21.576896	15.564858	67.273493	88.368622	-11.442671	8.519864	3.699936	-14.098424	-3.841133	130.234400	82.282075	-10.888332	24.936820
7.062500	-5.127471	-25.840685	91.025893	0.162267	0.932065	0.672476	28.963054	-5.174947	-10.449165	23.881054	0.416803	32.575926	5.369656	0.000000	26.400794	4.550036	0.642507	15.744610	0.274795	32.896180	-1.243242	0.000000	-0.434721	0.689075	0.348585	-0.807321	0.916469	0.370371	-0.714203	1.675416	0.370371	-0.496843	1.675416	0.305012	-0.403682	1.405161	0.283225	-0.248400	1.067376	0.261439	-3.105170	7.794949	1.938724	0.000000	0.000000	-11.083582	1.670057	1.334181	2.091781	-22.027340	15.921373	68.815387	88.552311	-11.153232	9.241346	6.316395	-13.284188	-4.022403	129.135657	81.821803	-10.787046	24.458797
7.083333	-5.371698	-25.502321	90.406330	0.163184	0.931767	0.671481	29.130688	-5.193387	-9.747486	24.925035	0.435024	32.766964	4.822186	0.000000	26.031499	4.578813	0.495766	15.775321	0.275331	33.136332	-1.671234	0.000000	-0.423622	0.641357	0.329825	-0.786709	0.853005	0.350439	-0.695969	1.559396	0.350439	-0.484158	1.559396	0.288597	-0.393376	1.307856	0.267983	-0.242058	0.993462	0.247369	-3.025893	7.255162	1.834389	0.000000	0.000000	-12.443538	1.769590	0.692893	0.670427	-22.355761	16.225644	70.187995	88.753588	-10.987490	9.484833	8.884920	-12.755303	-3.991733	127.845233	81.507443	-10.627175	23.634971
7.104167	-5.726096	-25.091762	89.722788	0.164781	0.931761	0.670539	29.080548	-5.224858	-8.876885	25.671023	0.448044	32.834216	4.131846	0.000000	25.516948	4.666555	0.268641	15.666499	0.273432	33.196717	-2.029102	0.000000	-0.418459	0.567344	0.327334	-0.777119	0.754567	0.347792	-0.687485	1.379439	0.347792	-0.478256	1.379439	0.286417	-0.388581	1.156927	0.265959	-0.239107	0.878815	0.245500	-2.989007	6.417904	1.820532	0.000000	0.000000	-13.439054	1.891661	-0.131516	-0.611119	-22.583850	16.703650	71.267660	88.900789	-11.113463	9.108431	11.274339	-12.519753	-3.858285	126.453492	81.310241	-10.367146	22.697650
7.125000	-6.152051	-24.632845	88.987526	0.166972	0.932049	0.669626	28.821917	-5.249620	-7.906289	26.092092	0.455393	32.786971	3.409469	0.000000	24.893138	4.783198	-0.029202	15.448888	0.269634	33.089885	-2.328270	0.000000	-0.414622	0.472403	0.342802	-0.769995	0.628296	0.364227	-0.681183	1.148601	0.364227	-0.473872	1.148601	0.299952	-0.385018	0.963324	0.278527	-0.236915	0.731752	0.257102	-2.961607	5.343918	1.906562	0.000000	0.000000	-14.031011	2.025221	-1.138841	-1.801246	-22.695082	17.203201	72.154683	89.033625	-11.328054	8.349441	13.410865	-12.519257	-3.617543	124.939318	81.299067	-10.013086	21.603181
